<svg width="180" height="40" viewBox="0 0 180 40" fill="none" xmlns="http://www.w3.org/2000/svg" role="img" aria-label="StudyForge AI">
  <defs>
    <linearGradient id="g" x1="0" y1="0" x2="180" y2="40" gradientUnits="userSpaceOnUse">
      <stop stop-color="#7C3AED"/>
      <stop offset="0.5" stop-color="#22D3EE"/>
      <stop offset="1" stop-color="#10B981"/>
    </linearGradient>
  </defs>
  <path d="M18 6C11.3726 6 6 11.3726 6 18C6 24.6274 11.3726 30 18 30C24.6274 30 30 24.6274 30 18C30 11.3726 24.6274 6 18 6Z" fill="url(#g)" opacity="0.22"/>
  <path d="M18 9.5C13.3056 9.5 9.5 13.3056 9.5 18C9.5 22.6944 13.3056 26.5 18 26.5C22.6944 26.5 26.5 22.6944 26.5 18C26.5 13.3056 22.6944 9.5 18 9.5Z" stroke="url(#g)" stroke-width="2"/>
  <path d="M14 18H22" stroke="url(#g)" stroke-width="2" stroke-linecap="round"/>
  <path d="M18 14V22" stroke="url(#g)" stroke-width="2" stroke-linecap="round"/>
  <text x="40" y="26" font-family="ui-sans-serif, system-ui, -apple-system, Segoe UI, Roboto, Inter, Arial" font-size="18" font-weight="700" fill="url(#g)">StudyForge AI</text>
</svg>

